<?xml version="1.0" encoding="utf-8"?>
<!-- Generator: Adobe Illustrator 26.2.1, SVG Export Plug-In . SVG Version: 6.00 Build 0)  -->
<svg version="1.1" id="Capa_1" xmlns="http://www.w3.org/2000/svg" xmlns:xlink="http://www.w3.org/1999/xlink" x="0px" y="0px"
	 viewBox="0 0 500 500" style="enable-background:new 0 0 500 500;" xml:space="preserve">
<g transform="translate(0.000000,500.000000) scale(0.100000,-0.100000)">
	<path d="M0,2500V0h2500h2500v2500v2500H2500H0V2500z M1294,3965c51-115,97-219,102-230c6-13,10,63,12,213l2,232h213h212l194-443
		c248-565,472-1071,475-1075c2-1,33,64,69,145c36,82,97,218,136,303c38,85,162,360,274,610l205,455l201,3l201,2l2-257l3-258l64,145
		c35,80,83,186,106,236c24,50,46,101,50,113c6,21,9,21,208,19l202-3l3-1382l2-1383h-160h-160v1059c0,675,4,1106,11,1186
		c10,120,7,171-6,109c-20-94-78-243-194-504l-131-294v-778v-778h-160h-160l-2,414l-3,413l-184-414l-183-414l-81,3l-81,3l-115,258
		c-63,141-117,257-120,257c-6,0-26-43-126-270c-26-58-62-138-80-177l-34-73h-78h-79l-183,412c-101,227-188,417-192,422
		c-5,6-9-178-9-412v-422h-155h-155v779v779l-41,89c-185,399-279,640-279,712c0,11-5,23-11,27c-9,5-10-1-4-22c4-16,10-554,12-1196
		l4-1168H931H770v1378c0,758,3,1382,7,1386c4,3,101,5,215,4l209-3L1294,3965z M4230,985V830H2500H770v155v155h1730h1730V985z"/>
	<path d="M1718,3397l4-402l90-205c49-113,137-312,195-444c58-131,120-279,138-330c18-50,37-90,41-89c5,1,25,47,46,103s54,139,73,185
		l36,83l-272,609c-291,652-298,668-332,803l-22,90L1718,3397z"/>
	<path d="M3280,3770c0-54-90-277-343-846l-276-622l53-123c29-68,63-154,76-192c12-37,26-67,31-67c4,0,13,17,20,38
		c25,79,111,286,204,492c54,118,126,279,161,358l64,142v243c0,217,11,458,25,560c3,22,1,37-5,37C3285,3790,3280,3781,3280,3770z"/>
</g>
<image style="overflow:visible;" width="261" height="261" xlink:href="ECB2281F3A6A83F0.png"  transform="matrix(1.9157 0 0 1.9157 0 0)">
</image>
</svg>
